<svg height='100px' width='100px'  fill="#000000" xmlns="http://www.w3.org/2000/svg" xmlns:xlink="http://www.w3.org/1999/xlink" version="1.1" x="0px" y="0px" viewBox="0 0 90 90" style="enable-background:new 0 0 90 90;" xml:space="preserve"><g><path d="M62.88232,16.35156h-1.4541v-3.70215c0-2.35156-1.91309-4.26465-4.26465-4.26465H32.83643   c-2.35156,0-4.26465,1.91309-4.26465,4.26465v3.70215h-1.4541c-4.18164,0-7.5835,3.40137-7.5835,7.58301v15.80371   c0,4.18164,3.40186,7.58398,7.5835,7.58398h7.45935c1.15485,3.21655,3.73517,5.68402,6.89417,6.75317v3.15063L27.21484,81.61523   h7.37354l6.88281-11.77441v11.77441h7.05762V69.84082l6.88281,11.77441h7.37354L48.52881,57.22607v-3.15063   c3.159-1.06915,5.73932-3.53662,6.89417-6.75317h7.45935c4.18164,0,7.5835-3.40234,7.5835-7.58398V23.93457   C70.46582,19.75293,67.06396,16.35156,62.88232,16.35156z M62.88232,18.35156c3.07861,0,5.5835,2.50488,5.5835,5.58301v5.73145   h-7.0376V18.35156H62.88232z M68.46582,31.66602v2.90234h-7.0376v-2.90234H68.46582z M30.57178,12.64941   c0-1.24902,1.01611-2.26465,2.26465-2.26465h24.32715c1.24854,0,2.26465,1.01563,2.26465,2.26465v24.32715   c0,1.24902-1.01611,2.26465-2.26465,2.26465H32.83643c-1.24854,0-2.26465-1.01563-2.26465-2.26465V12.64941z M28.57178,34.56836   h-7.0376v-2.90234h7.0376V34.56836z M27.11768,18.35156h1.4541v11.31445h-7.0376v-5.73145   C21.53418,20.85645,24.03906,18.35156,27.11768,18.35156z M33.44092,79.61523H30.7002l10.771-18.42578v4.68799L33.44092,79.61523z    M59.2998,79.61523h-2.74072l-8.03027-13.73779v-4.68799L59.2998,79.61523z M46.52881,79.61523h-3.05762V54.54315   C43.97351,54.61377,44.48267,54.6582,45,54.6582s1.02649-0.04443,1.52881-0.11505V79.61523z M45,52.6582   c-3.58923,0-6.81683-2.13892-8.26727-5.33594h16.53455C51.81683,50.51929,48.58923,52.6582,45,52.6582z M62.88232,45.32227   H27.11768c-3.07861,0-5.5835-2.50488-5.5835-5.58398v-3.16992h7.0376v0.4082c0,2.35156,1.91309,4.26465,4.26465,4.26465h24.32715   c2.35156,0,4.26465-1.91309,4.26465-4.26465v-0.4082h7.0376v3.16992C68.46582,42.81738,65.96094,45.32227,62.88232,45.32227z"></path><path d="M45,32.64453c4.31836,0,7.83154-3.51367,7.83154-7.83203S49.31836,16.98145,45,16.98145s-7.83154,3.5127-7.83154,7.83105   S40.68164,32.64453,45,32.64453z M45,18.98145c3.21533,0,5.83154,2.61621,5.83154,5.83105   c0,3.21582-2.61621,5.83203-5.83154,5.83203s-5.83154-2.61621-5.83154-5.83203C39.16846,21.59766,41.78467,18.98145,45,18.98145z"></path><path d="M45,22.49707v-2c-2.61182,0-4.73682,2.125-4.73682,4.7373h2C42.26318,23.72461,43.49072,22.49707,45,22.49707z"></path><path d="M45,37.06348c6.75488,0,12.25049-5.49609,12.25049-12.25098S51.75488,12.5625,45,12.5625s-12.25049,5.49512-12.25049,12.25   S38.24512,37.06348,45,37.06348z M45,14.5625c5.65234,0,10.25049,4.59766,10.25049,10.25S50.65234,35.06348,45,35.06348   S34.74951,30.46484,34.74951,24.8125S39.34766,14.5625,45,14.5625z"></path></g></svg>