<svg height='100px' width='100px'  fill="#000000" xmlns:dc="http://purl.org/dc/elements/1.1/" xmlns:cc="http://creativecommons.org/ns#" xmlns:rdf="http://www.w3.org/1999/02/22-rdf-syntax-ns#" xmlns:svg="http://www.w3.org/2000/svg" xmlns="http://www.w3.org/2000/svg" xmlns:sodipodi="http://sodipodi.sourceforge.net/DTD/sodipodi-0.dtd" xmlns:inkscape="http://www.inkscape.org/namespaces/inkscape" version="1.1" x="0px" y="0px" viewBox="0 0 32 32"><g transform="translate(0,-1020.3622)"><g transform="translate(-0.1874839,-0.08735)"><g transform="translate(0.18336736,-0.87410704)"><g><g><g><path style="text-indent:0;text-transform:none;direction:ltr;block-progression:tb;baseline-shift:baseline;color:#000000;enable-background:accumulate;" d="m 10.5,3.0625 c 1.737572,0 3.342543,0.5142187 4.6875,1.40625 C 13.237413,6.2094394 12,8.7472003 12,11.5625 c 0,0.095 -0.0028,0.186918 0,0.28125 -2.8488762,1.327986 -4.9403406,4.03109 -5.40625,7.25 C 3.8629461,17.681028 2,14.853876 2,11.5625 c 0,-4.7004 3.7996548,-8.5 8.5,-8.5 z m 11,0 c 4.700345,0 8.5,3.7996 8.5,8.5 0,3.306128 -1.874164,6.156405 -4.625,7.5625 C 24.915857,15.883871 22.839242,13.17128 19.96875,11.84375 19.971552,11.74904 20,11.65788 20,11.5625 20,8.7472003 18.762587,6.2094394 16.8125,4.46875 18.157457,3.5767187 19.762428,3.0625 21.5,3.0625 z M 16,5.09375 c 1.799185,1.5330357 2.963453,3.7991599 3,6.34375 -0.945933,-0.316391 -1.948586,-0.46875 -3,-0.46875 -1.051414,0 -2.054067,0.152359 -3,0.46875 0.03671,-2.5458756 1.199127,-4.8107777 3,-6.34375 z m 0,6.875 c 1.035274,0 2.02059,0.193563 2.9375,0.53125 C 18.690529,14.704932 17.601268,16.66794 16,18.03125 14.397173,16.667825 13.278368,14.706239 13.03125,12.5 13.955854,12.15581 14.954323,11.96875 16,11.96875 z m 3.875,0.90625 c 2.479827,1.267589 4.237424,3.73262 4.5625,6.625 -0.91691,0.33768 -1.902226,0.5625 -2.9375,0.5625 -1.737572,0 -3.342543,-0.545469 -4.6875,-1.4375 1.636089,-1.462994 2.744572,-3.472725 3.0625,-5.75 z m -7.78125,0.03125 c 0.323482,2.26529 1.46469,4.262041 3.09375,5.71875 -1.344957,0.892031 -2.949928,1.4375 -4.6875,1.4375 -1.045677,0 -2.0441458,-0.218317 -2.96875,-0.5625 0.3234668,-2.878064 2.1019374,-5.320811 4.5625,-6.59375 z M 16,19.28125 c 1.554646,1.110021 3.447156,1.78125 5.5,1.78125 1.052306,0 2.053376,-0.183094 3,-0.5 -0.05198,4.655346 -3.832124,8.40625 -8.5,8.40625 -4.667742,0 -8.4478032,-3.751089 -8.5,-8.40625 0.9466242,0.316906 1.947694,0.5 3,0.5 2.052844,0 3.945354,-0.671229 5.5,-1.78125 z" transform="translate(0.00411654,1021.3237)" fill="#000000" fill-opacity="1" stroke="none" marker="none" visibility="visible" display="inline" overflow="visible"></path></g></g></g></g></g></g></svg>