<svg height="100" width="100" xmlns="http://www.w3.org/2000/svg" viewBox="0 0 187 167" fill-rule="evenodd" clip-rule="evenodd" shape-rendering="geometricPrecision" text-rendering="geometricPrecision" image-rendering="optimizeQuality"><defs></defs><path class="fil0" d="M86 37c7 21 10 52-24 6-11-15-44 13-9 25 36 13 32 30-6 31-28 1-41 41 3 14 30-18 34 3 23 19-22 33 31 53 25 10-4-26 21-22 23-11 3 27 54 7 19-10-11-6-11-25 1-20 56 24 60-30 16-21-21 4-19-5-13-9 38-24-4-52-22-2-3 11-19 6 1-32 14-27-50-39-37 0z"/><circle class="fil0" transform="matrix(.08596 1.12967 1.1326 -.11471 50.947 143.385)" r="7"/><circle class="fil0" transform="matrix(.08596 1.12967 1.1326 -.11471 167.287 130.935)" r="7"/><circle class="fil0" transform="matrix(.08596 1.12967 1.1326 -.11471 130.483 7.704)" r="7"/><circle class="fil0" transform="matrix(.0477 .62702 .62864 -.06367 129.744 160.141)" r="7"/><circle class="fil0" transform="matrix(.04104 .53939 .54078 -.05477 3.676 103.289)" r="7"/></svg>