<svg height='100px' width='100px'  fill="#000000" xmlns:dc="http://purl.org/dc/elements/1.1/" xmlns:cc="http://creativecommons.org/ns#" xmlns:rdf="http://www.w3.org/1999/02/22-rdf-syntax-ns#" xmlns:svg="http://www.w3.org/2000/svg" xmlns="http://www.w3.org/2000/svg" xmlns:sodipodi="http://sodipodi.sourceforge.net/DTD/sodipodi-0.dtd" xmlns:inkscape="http://www.inkscape.org/namespaces/inkscape" version="1.1" x="0px" y="0px" viewBox="0 0 100 100"><g transform="translate(0,-952.36218)"><path d="m 49.4026,973.36217 c 4.2175,3.6379 8.4078,7.3075 12.6079,10.9654 l 0,-5.7497 6.036701,0 0,10.9966 c 5.988499,5.2108 11.979798,10.4183 17.952799,15.64693 -3.133601,0 -6.267201,0 -9.400801,0 0,8.7136 0,17.4272 0,26.1408 -10.732699,0 -21.866799,0 -31.095299,0 -0.081,-5.362 -0.1288,-10.7244 -0.1886,-16.0866 l -6.9484,0 c 0,5.3621 0,10.7244 0,16.0866 -5.1697,0 -10.621699,0 -15.091699,0 0,-8.7136 0,-17.4272 0,-26.1408 -3.091701,0 -6.1835,0 -9.2752,0 12.4887,-11.29853 24.523,-22.02173 35.4026,-31.85923 z" style="color:#000000;enable-background:accumulate;" stroke="none" marker="none" visibility="visible" display="inline" overflow="visible"></path></g></svg>