<svg height='100px' width='100px'  fill="#000000" xmlns="http://www.w3.org/2000/svg" xmlns:xlink="http://www.w3.org/1999/xlink" version="1.1" x="0px" y="0px" viewBox="0 0 66 66" enable-background="new 0 0 66 66" xml:space="preserve"><g><path d="M23,1.3c-2.4,0.3-4.2,2.5-3.9,4.9c0.2,1.7,1.3,3,2.8,3.6L3.9,58c-0.1,0.4,0,0.8,0.2,1.1   c0.2,0.2,0.4,0.3,0.7,0.3c0.1,0,0.2,0,0.3-0.1l18.3-6.8v9.1c0,1.9,1.6,3.5,3.5,3.5c1.9,0,3.5-1.6,3.5-3.5V59c0.5,0.2,1,0.3,1.5,0.3   c1.9,0,3.5-1.6,3.5-3.5V48l17.9-6.7c0.7,1.8,2.4,2.9,4.1,2.9c2.2,0,4.1-1.7,4.4-3.9c0,0,0,0,0,0C64.6,16,47.2-1.4,23,1.3z M23.9,10   C23.9,10,23.9,10,23.9,10c18.2-2.1,31.3,10.4,29.2,29.2L6.5,56.6L23.9,10z M33.5,55.8c0,0.8-0.7,1.5-1.5,1.5   c-0.8,0-1.5-0.7-1.5-1.5c0-0.6-0.4-1-1-1s-1,0.4-1,1v5.7c0,0.8-0.7,1.5-1.5,1.5c-0.8,0-1.5-0.7-1.5-1.5v-9.8l8-3V55.8z M59.9,40   c-0.1,1.2-1.2,2.1-2.4,2.1c-1.4,0-2.6-1.2-2.4-2.7C57.4,19.2,43,5.8,23.8,8.1c-1.6,0.1-2.6-1-2.7-2.1c-0.1-1.3,0.8-2.5,2.1-2.7   C46,0.7,62.5,17,59.9,40z"></path><path d="M43.8,25.8c-2.6,0-4.8,2.2-4.8,4.8c0,2.6,2.1,4.8,4.8,4.8c2.6,0,4.8-2.1,4.8-4.8   C48.6,27.9,46.4,25.8,43.8,25.8z M43.8,33.3c-1.5,0-2.8-1.3-2.8-2.8c0-1.5,1.3-2.8,2.8-2.8c1.5,0,2.8,1.3,2.8,2.8   C46.6,32.1,45.3,33.3,43.8,33.3z"></path><path d="M31.3,14.9c-2.4,0-4.4,2-4.4,4.4c0,2.4,2,4.3,4.4,4.3c2.4,0,4.4-1.9,4.4-4.3   C35.7,16.8,33.7,14.9,31.3,14.9z M31.3,21.6c-1.3,0-2.4-1.1-2.4-2.3c0-1.3,1.1-2.4,2.4-2.4c1.3,0,2.4,1.1,2.4,2.4   C33.7,20.5,32.6,21.6,31.3,21.6z"></path><path d="M18.6,39.7c-2.1,0-3.8,1.7-3.8,3.8s1.7,3.8,3.8,3.8s3.8-1.7,3.8-3.8S20.7,39.7,18.6,39.7z M18.6,45.2   c-1,0-1.8-0.8-1.8-1.8c0-1,0.8-1.8,1.8-1.8s1.8,0.8,1.8,1.8C20.4,44.5,19.6,45.2,18.6,45.2z"></path><path d="M29,27.1c-2.8,0-5.1,2.3-5.1,5.1c0,2.8,2.3,5.1,5.1,5.1c2.8,0,5.1-2.3,5.1-5.1   C34.2,29.4,31.9,27.1,29,27.1z M29,35.4c-1.7,0-3.1-1.4-3.1-3.1c0-1.7,1.4-3.1,3.1-3.1c1.7,0,3.1,1.4,3.1,3.1   C32.2,33.9,30.8,35.4,29,35.4z"></path></g></svg>