<svg height='100px' width='100px'  fill="#000000" xmlns="http://www.w3.org/2000/svg" xmlns:xlink="http://www.w3.org/1999/xlink" xml:space="preserve" version="1.1" style="shape-rendering:geometricPrecision;text-rendering:geometricPrecision;image-rendering:optimizeQuality;" viewBox="0 0 187 167" x="0px" y="0px" fill-rule="evenodd" clip-rule="evenodd"><defs><style type="text/css">
   
    .fil0 {fill:#000000}
   
  </style></defs><g><path class="fil0" d="M86 37c7,21 10,52 -24,6 -11,-15 -44,13 -9,25 36,13 32,30 -6,31 -28,1 -41,41 3,14 30,-18 34,3 23,19 -22,33 31,53 25,10 -4,-26 21,-22 23,-11 3,27 54,7 19,-10 -11,-6 -11,-25 1,-20 56,24 60,-30 16,-21 -21,4 -19,-5 -13,-9 38,-24 -4,-52 -22,-2 -3,11 -19,6 1,-32 14,-27 -50,-39 -37,0z"></path><circle class="fil0" transform="matrix(0.0859555 1.12967 1.1326 -0.114715 50.9471 143.385)" r="7"></circle><circle class="fil0" transform="matrix(0.0859555 1.12967 1.1326 -0.114715 167.287 130.935)" r="7"></circle><circle class="fil0" transform="matrix(0.0859555 1.12967 1.1326 -0.114715 130.483 7.70402)" r="7"></circle><circle class="fil0" transform="matrix(0.0477091 0.627019 0.62864 -0.0636718 129.744 160.141)" r="7"></circle><circle class="fil0" transform="matrix(0.0410412 0.539387 0.540781 -0.054773 3.67625 103.289)" r="7"></circle></g></svg>