<svg height='100px' width='100px'  fill="#000000" xmlns="http://www.w3.org/2000/svg" xmlns:xlink="http://www.w3.org/1999/xlink" version="1.1" x="0px" y="0px" viewBox="0 0 131 131" enable-background="new 0 0 131 131" xml:space="preserve"><g><path d="M44.5844727,123.9952774v-20.6533203c0-0.5527344-0.4477539-1-1-1c-2.831543,0-5.1352539-2.3037109-5.1352539-5.1347656   c0-0.5527344-0.4477539-1-1-1H27.4291992c-0.5522461,0-1,0.4472656-1,1c0,2.8310547-2.3032227,5.1347656-5.1347656,5.1347656   c-0.5522461,0-1,0.4472656-1,1v20.6533203h2v-19.7236328c3.1357422-0.4414063,5.6230469-2.9287109,6.0649414-6.0644531h8.159668   c0.4418945,3.1357422,2.9296875,5.6230469,6.0654297,6.0644531v19.7236328H44.5844727z"></path><path d="M77.6508789,123.9952774v-20.6533203c0-0.5527344-0.4477539-1-1-1c-2.831543,0-5.1347656-2.3037109-5.1347656-5.1347656   c0-0.5527344-0.4477539-1-1-1H60.4960938c-0.5522461,0-1,0.4472656-1,1c0,2.8310547-2.3032227,5.1347656-5.1347656,5.1347656   c-0.5522461,0-1,0.4472656-1,1v20.6533203h2v-19.7236328c3.1357422-0.4414063,5.6230469-2.9287109,6.0649414-6.0644531h8.159668   c0.4418945,3.1357422,2.9291992,5.6230469,6.0649414,6.0644531v19.7236328H77.6508789z"></path><path d="M109.7172852,102.3419571c-2.831543,0-5.1347656-2.3037109-5.1347656-5.1347656c0-0.5527344-0.4477539-1-1-1H93.5625   c-0.5522461,0-1,0.4472656-1,1c0,2.8310547-2.3032227,5.1347656-5.1347656,5.1347656c-0.5522461,0-1,0.4472656-1,1v20.6533203h2   v-19.7236328c3.1357422-0.4414063,5.6230469-2.9287109,6.0649414-6.0644531h8.159668   c0.4418945,3.1357422,2.9291992,5.6230469,6.0649414,6.0644531v19.7236328h2v-20.6533203   C110.7172852,102.7892227,110.2695313,102.3419571,109.7172852,102.3419571z"></path><path d="M23.2822266,48.8868828l-2.7553711,2.9094238l-0.0385742-0.0656738l-8.3803711,4.9287109   c-3.9301758,2.3017578-6.371582,6.5654297-6.371582,11.1279259v7.8457031H2.984375c-0.5522461,0-1,0.4472656-1,1v9.1494141   c0,0.5527344,0.4477539,1,1,1h5.6484375v37.203125h2v-37.203125h109.734375v37.203125h2v-37.203125h5.6484375   c0.5522461,0,1-0.4472656,1-1v-9.1494141c0-0.5527344-0.4477539-1-1-1h-12.5986328v-3.1162109c0.2658844,0,2.7146988,0,2.5742188,0   c2.671875,0,4.8457031-2.1738281,4.8457031-4.8457031V46.7042656c0-2.6650391-2.1738281-4.8339844-4.8457031-4.8339844   c-0.3855057,0-8.7914505,0-8.6699219,0v-5.3623047c0-2.3388672-1.9023438-4.2412109-4.2407227-4.2412109H82.9033203   c-2.3383789,0-4.2407227,1.9023438-4.2407227,4.2412109v5.3623047c-3.1855316,0-5.4632797,0-8.6748047,0   c-2.6655273,0-4.8344727,2.1689453-4.8344727,4.8339844v20.9667931c0,2.671875,2.1689453,4.8457031,4.8344727,4.8457031h2.4951172   h0.0898438v3.1162109h-10.987793v-7.8574219c0-4.5546837-2.4414063-8.8144493-6.3696289-11.1152306l-8.3476563-4.90625   l-0.036377,0.0620117c-0.6517906-0.690712-2.3046913-2.4541092-2.7790527-2.9448242   c-1.2083282-1.2083321-3.8211594-0.6427803-3.9562988-5.0993652c2.8845406-1.6181602,5.2230377-4.7073517,5.9284668-8.4052734   l0.1352539-0.0109863c2.625,0,4.7602539-2.1357422,4.7602539-4.7607422c0-2.4473877-1.8640137-4.4451904-4.3050537-4.7049561   l2.8533936-8.553833c0.0131836-0.0253906,0.0332031-0.0703125,0.0507813-0.1123047h0.0004883   c2.238903-5.2230473-2.2364502-10.8691473-7.9208984-10.1582041c-5.4838867,0.6972656-12.0078125,0.8964844-16.5136719,0.9404297   c-1.9960938,0.0166016-3.6201172,1.6494141-3.6201172,3.640625v0.3525391   c-2.7402916,0.3365488-5.1061325,3.7658682-4.0541992,7.5019541c0.0234375,0.0830078,0.0576172,0.1630859,0.1020508,0.2382813   l3.678833,6.2155762c-2.3692627,0.2709961-4.22229,2.2645264-4.22229,4.7053223   c0,2.6230469,2.1323242,4.7578125,4.831543,4.7578125c0,0,0.0024414,0,0.0036621,0   c0.5943642,3.1042671,2.3639107,5.9852333,5.4360352,8.0405273C27.1827335,48.1679802,24.7744102,47.57444,23.2822266,48.8868828z    M80.6625977,36.5079765c0-1.2353516,1.0053711-2.2412109,2.2407227-2.2412109h22.1772461   c1.2353516,0,2.2407227,1.0058594,2.2407227,2.2412109v5.359375H80.6625977V36.5079765z M127.015625,84.7823868H3.984375   v-7.1494141c14.3846588,0,102.6261215,0,123.03125,0V84.7823868z M109.9160156,43.8702812v26.6464806   c-14.1958923,0-22.4814682,0-31.8422852,0V43.8702812H109.9160156z M106.4121094,72.5167618v3.1162109H81.5776367v-3.1162109   H106.4121094z M113.4169922,75.6329727h-5.0048828v-3.1162109c0.1651611,0,5.3235168,0,5.0048828,0V75.6329727z    M120.8369141,46.7042656v20.9667931c0,1.5693359-1.2763672,2.8457031-2.8457031,2.8457031h-1.484375V43.8702812h1.484375   C119.5605469,43.8702812,120.8369141,45.1417656,120.8369141,46.7042656z M114.5068359,43.8702812v26.6464806h-0.0898438   h-2.5009766V43.8702812H114.5068359z M76.0737305,43.8702812v26.6464806h-2.5009766h-0.0898438V43.8702812H76.0737305z    M67.1533203,67.6710587V46.7042656c0-1.5625,1.2714844-2.8339844,2.8344727-2.8339844h1.4951172v26.6464806H69.987793   C68.4248047,70.5167618,67.1533203,69.2403946,67.1533203,67.6710587z M74.5727539,72.5167618c0.1627655,0,5.3344345,0,5.0048828,0   v3.1162109h-5.0048828V72.5167618z M24.1091309,50.9222832l7.1503906,5.5864258l0.7839355,0.6125488l-2.7275391,5.0585938   l-7.7651367-8.5556641L24.1091309,50.9222832z M59.5849609,67.7755508v7.8544922H7.7363281v-7.8427734   c0-3.8544884,2.0625-7.4570274,5.3837891-9.4023399l6.5527344-3.8538818l9.1118164,10.0394249   c0.190918,0.2099609,0.4604492,0.328125,0.7407227,0.328125c0.0400391,0,0.0805664-0.0019531,0.1210938-0.0078125   c0.3222656-0.0390625,0.6049805-0.2324219,0.7592773-0.5175781l2.9162598-5.4089317l2.9001465,5.4069786   c0.1508789,0.2802734,0.4257813,0.4726563,0.7412109,0.5175781c0.046875,0.0068359,0.09375,0.0097656,0.1401367,0.0097656   c0.2675781,0,0.5263672-0.1074219,0.7158203-0.3017578l9.824707-10.0660362l6.559082,3.8551025   C57.5229492,60.3292656,59.5849609,63.9278984,59.5849609,67.7755508z M37.340332,62.2247734l-2.722168-5.0751953   l2.7921143-2.0275879l5.8132324-4.2209473l2.5372314,2.6958008L37.340332,62.2247734z M41.4534912,49.7140312L33.3461914,55.60075   l-7.5009766-5.8603516c0.116293-0.1199646,3.0446739-0.9991188,3.3598633-5.2460938   c2.6824398,1.1158943,5.981823,1.267231,8.9355469,0.1855469C38.3110352,46.547039,41.2826538,49.5418625,41.4534912,49.7140312z    M48.9199219,30.5948906c0,1.4492188-1.1225586,2.6416016-2.6103516,2.7548828v-5.5107422   C47.762207,27.9171562,48.9199219,29.1232109,48.9199219,30.5948906z M22.328125,13.9923506   c0.284668,0.0429688,0.5756836-0.0458984,0.793457-0.2363281c0.2182617-0.1894531,0.3432617-0.4648438,0.3432617-0.7539063   v-1.3554688c0-0.8974609,0.7338867-1.6337891,1.6381836-1.640625c4.5605469-0.0449219,11.1679688-0.2470703,16.7485352-0.9560547   c4.1781349-0.5352411,7.4384193,3.6107883,5.8344727,7.375001h0.0004883c0,0-0.0004883,0.0019531-0.0019531,0.0068359   c-0.0224609,0.0439453-0.0654297,0.1425781-0.0805664,0.1894531l-1.628418,4.8730469   c-0.4979515-1.1113911-1.6685257-1.9570313-3.0031738-1.967041c-0.0092773,0-0.0178223-0.0026855-0.0270996-0.0026855H24.9121094   c-1.6044941,0-3.1271324,1.227335-3.3000488,3.0117188c-0.0053711,0.0551758-0.0211182,0.1071777-0.0236816,0.1630859   l-2.2851563-3.8613281C18.7074928,16.4896908,20.168499,13.6981373,22.328125,13.9923506z M21.5795898,33.4171562   c-1.4526367-0.078125-2.6103516-1.2851563-2.6103516-2.7568359c0-1.4492188,1.1225586-2.640625,2.6103516-2.7539063v5.171875   V33.4171562z M23.5795898,33.078289V26.835125v-0.4570313c0.0003662-0.0111084,0.0053711-0.0209961,0.0053711-0.0322266v-3.4921875   c0-0.7324219,0.5957031-1.328125,1.328125-1.328125h18.0356445c0.7306252,0,1.315918,0.6046848,1.315918,1.328125v3.9238281   c0,0.0037842,0.0019531,0.0070801,0.0019531,0.0107422v6.2900391c0,8.0725441-8.7866592,12.8976822-15.550293,8.9423828   C25.9358463,40.5507469,23.5795898,37.0587158,23.5795898,33.078289z"></path><path d="M31.2832031,35.7169609l-1.7363281,0.9921875c0.8955078,1.5664063,2.5742188,2.5400391,4.3813477,2.5400391   c1.8076172,0,3.4868164-0.9736328,4.3813477-2.5400391l-1.7363281-0.9921875   c-0.5400391,0.9453125-1.5532227,1.5322266-2.6450195,1.5322266   C32.8369141,37.2491875,31.8232422,36.6622734,31.2832031,35.7169609z"></path><path d="M32.2924805,28.5138359c0-1.6044922-1.3095703-2.9091797-2.9194336-2.9091797   c-1.6044922,0-2.9101563,1.3046875-2.9101563,2.9091797c0,1.6103516,1.3056641,2.9199219,2.9101563,2.9199219   C30.9829102,31.4337578,32.2924805,30.1241875,32.2924805,28.5138359z M28.4628906,28.5138359   c0-0.5009766,0.4082031-0.9091797,0.9101563-0.9091797c0.5068359,0,0.9194336,0.4082031,0.9194336,0.9091797   c0,0.5068359-0.4125977,0.9199219-0.9194336,0.9199219C28.8710938,29.4337578,28.4628906,29.0206718,28.4628906,28.5138359z"></path><path d="M38.4799805,31.4337578c1.6098633,0,2.9194336-1.3095703,2.9194336-2.9199219   c0-1.6044922-1.3095703-2.9091797-2.9194336-2.9091797c-1.6044922,0-2.9101563,1.3046875-2.9101563,2.9091797   C35.5698242,30.1241875,36.8754883,31.4337578,38.4799805,31.4337578z M38.4799805,27.6046562   c0.5068359,0,0.9194336,0.4082031,0.9194336,0.9091797c0,0.5068359-0.4125977,0.9199219-0.9194336,0.9199219   c-0.5019531,0-0.9101563-0.4130859-0.9101563-0.9199219C37.5698242,28.0128593,37.9780273,27.6046562,38.4799805,27.6046562z"></path></g></svg>