<svg height='100px' width='100px'  xmlns="http://www.w3.org/2000/svg" viewBox="0 0 100 100" fill="none" x="0px" y="0px"><path d="M23.9745 21.4703C20.7439 19.9644 18.9586 17.6219 19.0436 15.1957C19.1286 12.6023 21.424 10.2598 25.1647 8.83757L44.8884 1.39182C45.2285 1.2245 45.4835 0.806199 45.3135 0.471559C45.1435 0.136918 44.7184 -0.114062 44.3783 0.053258L24.6546 7.58267C20.4038 9.17221 17.7683 12.1003 17.5983 15.1957C17.4283 18.2075 19.5537 20.9683 23.2944 22.8088C26.2699 24.231 28.1403 26.4062 28.2253 28.665C28.3103 30.8402 26.9501 32.848 24.3996 34.3539L0.340064 48.6598C0 48.8271 -0.0850159 49.3291 0.0850159 49.6637C0.255048 49.9147 0.510096 49.9984 0.765143 49.9984C0.935175 49.9984 1.02019 49.9984 1.10521 49.9147L25.1647 35.6088C28.1403 33.852 29.8406 31.2585 29.7556 28.5814C29.5855 25.7369 27.4601 23.2271 23.9745 21.4703Z" transform="translate(10 24.8905)" fill="black"></path><path d="M20.2209 31.0495C19.0307 27.8704 15.375 25.3606 10.5291 24.4403C5.76819 23.5201 2.45257 21.0939 1.68743 18.1658C1.17733 16.0743 2.11251 14.0665 4.2379 12.3933L18.6906 1.26648C19.0307 1.0155 19.0307 0.597203 18.7756 0.262562C18.5206 -0.0720782 18.0955 -0.0720785 17.7554 0.178902L3.30273 11.3057C0.667237 13.3972 -0.437971 15.907 0.15714 18.5841C1.0073 22.0979 4.83301 24.9423 10.104 25.9462C14.4398 26.7828 17.7554 28.958 18.7756 31.6351C19.3707 33.3083 19.1157 34.9815 17.8405 36.5711L3.21771 55.0599C2.96266 55.3946 3.04768 55.8129 3.38775 56.0639C3.55778 56.1475 3.64279 56.2312 3.81282 56.2312C4.06787 56.2312 4.23791 56.1475 4.40794 55.9802L19.1157 37.4077C20.646 35.4835 21.0711 33.2247 20.2209 31.0495Z" transform="translate(57.8769 25.7688)" fill="black"></path><path d="M16.4622 0.471559C16.2922 0.136918 15.8671 -0.114062 15.527 0.053258L0.479201 5.99313C0.139137 6.16045 -0.115911 6.57875 0.0541211 6.91339C0.139137 7.16437 0.4792 7.33169 0.734248 7.33169C0.819264 7.33169 0.904279 7.33169 0.989295 7.24803L16.0371 1.30816C16.3772 1.30816 16.5472 0.889859 16.4622 0.471559Z" transform="translate(44.5474 27.1494)" fill="black"></path><path d="M12.1355 0.145931L0.318328 8.42828C-0.0217353 8.67927 -0.106752 9.09757 0.148296 9.43221C0.318328 9.59953 0.48836 9.76685 0.743408 9.76685C0.91344 9.76685 1.08347 9.68318 1.16849 9.59952L12.9857 1.31717C13.3258 1.06619 13.4108 0.647892 13.1557 0.313252C12.9007 -0.0213887 12.4756 -0.105049 12.1355 0.145931Z" transform="translate(25.1546 62.0266)" fill="black"></path><path d="M3.21848 1.4042C3.55855 1.23688 3.72858 0.818583 3.55855 0.400282C3.38851 0.0656416 2.96344 -0.10168 2.53836 0.0656403C1.26312 0.651261 0.327942 1.8225 0.0728944 3.24473C-0.182153 4.66695 0.242926 6.00551 1.1781 7.09309L2.28331 8.26433C2.45334 8.43165 2.62337 8.51532 2.79341 8.51532C2.96344 8.51532 3.13347 8.43165 3.3035 8.34799C3.55855 8.09701 3.64356 7.59505 3.3035 7.34407L2.36833 6.08917C1.6882 5.41989 1.43315 4.49963 1.60318 3.49571C1.77321 2.57544 2.36833 1.8225 3.21848 1.4042Z" transform="translate(35.4319 37.0089)" fill="black"></path><path d="M3.05766 13.4664C2.80261 13.8011 2.80261 14.2194 3.14268 14.4703C3.31271 14.554 3.48275 14.6377 3.65278 14.6377C3.82281 14.6377 4.07785 14.554 4.24789 14.3867L7.56351 10.5383C8.5837 9.28341 9.00878 7.69387 8.66871 6.18799C8.32865 4.59844 7.39348 3.34354 5.9482 2.5906L1.1023 0.0807941C0.762235 -0.0865262 0.337151 -0.00286476 0.0821035 0.415436C-0.0879284 0.750076 -0.00291119 1.16838 0.422169 1.41936L5.26807 3.92916C6.28827 4.43112 7.05341 5.43504 7.22344 6.52262C7.47849 7.61021 7.13843 8.78145 6.37328 9.70171L3.05766 13.4664Z" transform="translate(63.563 53.1401)" fill="black"></path><path d="M1.17191 9.45359L1.59699 9.20261C3.12728 8.44967 4.40252 7.36209 5.33769 6.10719V9.03529L4.74258 9.95555C3.80741 11.3778 2.44715 12.4654 0.916864 13.1346C0.5768 13.302 0.406768 13.7203 0.5768 14.0549C0.746832 14.3895 1.17191 14.5569 1.51198 14.3895C3.04226 13.7203 4.3175 12.7163 5.33769 11.4614V17.6523C5.33769 18.0706 5.67776 18.4052 6.10284 18.4052C6.52792 18.4052 6.86798 18.0706 6.86798 17.6523V11.6288C7.80315 12.8 8.90836 13.8876 10.1836 14.5569L10.6087 14.8078C10.6937 14.8915 10.8637 14.8915 10.9487 14.8915C11.2038 14.8915 11.4588 14.7242 11.6289 14.5569C11.7989 14.2222 11.7139 13.8039 11.3738 13.5529L10.9487 13.302C9.58849 12.549 8.48328 11.4614 7.63312 10.2065L6.86798 8.95163V6.19085C7.71814 7.44575 8.82335 8.44967 10.0986 9.28627L11.0338 9.87189C11.1188 9.95555 11.2888 9.95555 11.3738 9.95555C11.6289 9.95555 11.8839 9.8719 11.9689 9.62092C12.139 9.28627 12.054 8.86797 11.7139 8.61699L10.7787 8.03137C9.58849 7.27843 8.5683 6.35817 7.80315 5.18693L6.78296 3.59739V0.752939C6.78296 0.334639 6.4429 0 6.01782 0C5.59274 0 5.25268 0.334639 5.25268 0.752939V3.59739L4.3175 4.93595C3.46734 6.19085 2.27712 7.19477 0.831848 7.86405L0.406768 8.11503C0.0667043 8.28235 -0.103328 8.70065 0.0667043 9.11895C0.406768 9.53725 0.831848 9.62091 1.17191 9.45359Z" transform="translate(10.3584 47.6157)" fill="black"></path><path d="M7.80315 6.86013C8.82335 8.44967 10.1836 9.78824 11.7989 10.7085L12.9041 11.3778C12.9891 11.4614 13.1592 11.4614 13.2442 11.4614C13.4992 11.4614 13.7543 11.3778 13.8393 11.1268C14.0093 10.7922 13.9243 10.3739 13.5842 10.1229L12.564 9.53726C11.1188 8.70065 9.92855 7.52941 8.99338 6.10719L7.71814 4.09935V0.752942C7.71814 0.334642 7.37807 0 6.95299 0C6.52792 0 6.18785 0.334642 6.18785 0.752942V4.09935L4.99763 5.77255C3.97743 7.27843 2.53216 8.53334 0.831844 9.28628L0.406764 9.53726C0.0667001 9.70458 -0.103327 10.1229 0.0667052 10.5412C0.236737 10.8758 0.661814 11.0431 1.08689 10.8758L1.59699 10.6248C3.46734 9.70458 5.08264 8.36601 6.27287 6.69281V10.6248L5.50772 11.7124C4.40251 13.3856 2.78722 14.7242 0.916865 15.5608C0.576801 15.7281 0.406768 16.1464 0.5768 16.4811C0.746831 16.8157 1.17191 16.983 1.51197 16.8157C3.38232 15.9791 4.99763 14.6405 6.18785 13.051V20.8314C6.18785 21.2497 6.52792 21.5843 6.95299 21.5843C7.37807 21.5843 7.71814 21.2497 7.71814 20.8314V13.302C8.82335 14.8915 10.2686 16.1464 11.8839 17.1503L12.394 17.4013C12.479 17.485 12.6491 17.485 12.7341 17.485C12.9891 17.485 13.2442 17.3176 13.4142 17.1503C13.5842 16.8157 13.4992 16.3974 13.1592 16.1464L12.6491 15.8954C11.0338 14.9752 9.6735 13.7203 8.73833 12.2144L7.80315 10.7085V6.86013Z" transform="translate(76.0757 58.6588)" fill="black"></path><path d="M1.08689 6.69281L1.42696 6.52549C2.27712 6.10719 2.95724 5.52157 3.55236 4.85229V6.10719L3.21229 6.69281C2.61718 7.52941 1.76702 8.28235 0.831849 8.70065C0.491785 8.86797 0.321752 9.28627 0.491784 9.62092C0.661816 9.95556 1.08689 10.1229 1.42696 9.95556C2.27712 9.53726 2.95724 9.03529 3.55236 8.36601V11.8797C3.55236 12.298 3.89242 12.6327 4.3175 12.6327C4.74258 12.6327 5.08265 12.298 5.08265 11.8797V8.53333C5.59274 9.11895 6.18785 9.70458 6.95299 10.0392L7.20804 10.2065C7.29306 10.2902 7.46309 10.2902 7.54811 10.2902C7.80316 10.2902 8.0582 10.1229 8.22823 9.95556C8.39826 9.62092 8.31325 9.20261 7.97319 8.95163L7.71814 8.78431C6.86798 8.28235 6.18785 7.61307 5.67775 6.86013L5.16766 6.10719V5.01961C5.67776 5.60523 6.27287 6.19085 6.95299 6.60915L7.54811 6.94379C7.63313 7.02745 7.80315 7.02745 7.88817 7.02745C8.14322 7.02745 8.39827 6.94379 8.48328 6.69281C8.65332 6.35817 8.5683 5.93987 8.22823 5.68889L7.63312 5.35425C6.86798 4.93595 6.18785 4.26667 5.76277 3.51373L5.08265 2.5098V0.752942C5.08265 0.334641 4.74258 0 4.3175 0C3.89242 0 3.55236 0.334641 3.55236 0.752942V2.5098L2.95725 3.34641C2.36214 4.18301 1.68201 4.76863 0.746834 5.18693L0.406769 5.35425C0.0667054 5.52157 -0.103328 5.93987 0.0667041 6.35817C0.321752 6.69281 0.746829 6.86013 1.08689 6.69281Z" transform="translate(78.7962 29.8797)" fill="black"></path><path d="M1.25693 5.68889L1.51197 5.60523C2.10709 5.35425 2.61718 4.93595 3.04226 4.43399V5.10327L2.78721 5.52157C2.27712 6.19085 1.68201 6.77647 0.831848 7.11111C0.491784 7.27843 0.321752 7.69673 0.491784 8.03137C0.661816 8.36601 1.08689 8.53333 1.42696 8.36601C2.02207 8.11503 2.53217 7.69673 3.04226 7.27843V9.87189C3.04226 10.2902 3.38232 10.6248 3.8074 10.6248C4.23248 10.6248 4.57255 10.2902 4.57255 9.87189V7.52941C4.99763 7.94771 5.42271 8.28235 5.9328 8.53333L6.18785 8.61699C6.27287 8.70065 6.4429 8.70065 6.52791 8.70065C6.78296 8.70065 7.03801 8.53333 7.20804 8.36601C7.37807 8.03137 7.29306 7.61307 6.95299 7.36209L6.69795 7.27843C6.01782 6.94379 5.42271 6.35817 4.99763 5.68889L4.65756 5.10327V4.60131C4.99763 5.01961 5.42271 5.35425 5.9328 5.60523L6.27287 5.93987C6.35788 6.02353 6.52792 6.02353 6.61293 6.02353C6.86798 6.02353 7.12303 5.93987 7.20804 5.68889C7.37807 5.35425 7.29306 4.93595 6.95299 4.68497L6.4429 4.35033C5.84779 4.01569 5.33769 3.51373 4.91261 2.9281L4.40252 2.0915V0.752941C4.40252 0.33464 4.06245 0 3.63737 0C3.21229 0 2.87223 0.33464 2.87223 0.752941V2.17516L2.44715 2.84444C2.02207 3.51373 1.42696 4.01569 0.661815 4.35033L0.406768 4.43399C0.0667041 4.60131 -0.103327 5.01961 0.0667044 5.43791C0.406768 5.77255 0.916864 5.85621 1.25693 5.68889Z" transform="translate(33.4827 18)" fill="black"></path></svg>