<svg height='100px' width='100px'  fill="#000000" xmlns="http://www.w3.org/2000/svg" xmlns:xlink="http://www.w3.org/1999/xlink" version="1.1" x="0px" y="0px" viewBox="0 0 100 100" enable-background="new 0 0 100 100" xml:space="preserve"><g><path d="M23.93,39.838c0.829,0.522,1.783,0.798,2.76,0.798c1.804,0,3.453-0.911,4.411-2.438c1.521-2.431,0.783-5.648-1.646-7.169   c-0.829-0.521-1.782-0.795-2.758-0.795c-1.805,0-3.454,0.911-4.411,2.438c-0.739,1.179-0.975,2.575-0.663,3.931   C21.935,37.954,22.754,39.104,23.93,39.838z M23.133,33.202c0.773-1.233,2.105-1.969,3.563-1.969c0.787,0,1.557,0.222,2.226,0.643   c1.963,1.229,2.559,3.828,1.331,5.792c-0.774,1.232-2.106,1.969-3.563,1.969c-0.788,0-1.558-0.223-2.229-0.646   c-0.95-0.593-1.612-1.521-1.863-2.613C22.346,35.283,22.536,34.155,23.133,33.202z"></path><path d="M41.537,29.08c0.542,0,1.08-0.085,1.6-0.253c2.729-0.885,4.232-3.824,3.35-6.549c-0.696-2.156-2.684-3.604-4.947-3.604   c-0.543,0-1.083,0.086-1.604,0.254c-2.727,0.88-4.23,3.817-3.351,6.548C37.282,27.631,39.271,29.08,41.537,29.08z M40.244,19.879   c0.422-0.137,0.858-0.206,1.296-0.206c1.828,0,3.433,1.17,3.995,2.912c0.713,2.202-0.501,4.576-2.706,5.291   c-0.42,0.136-0.855,0.205-1.292,0.205c-1.83,0-3.438-1.17-4-2.911C36.827,22.963,38.041,20.59,40.244,19.879z"></path><path d="M74.488,43.252c0.841,0,1.682-0.209,2.43-0.605c1.227-0.65,2.128-1.739,2.536-3.067s0.275-2.736-0.375-3.964   c-0.904-1.708-2.667-2.77-4.6-2.77c-0.842,0-1.682,0.21-2.428,0.606c-1.229,0.649-2.131,1.739-2.54,3.068s-0.276,2.737,0.375,3.966   C70.793,42.192,72.556,43.252,74.488,43.252z M70.467,36.814c0.331-1.073,1.06-1.953,2.053-2.479c0.604-0.32,1.281-0.49,1.96-0.49   c1.562,0,2.985,0.857,3.716,2.238c0.525,0.992,0.633,2.129,0.303,3.202s-1.058,1.953-2.049,2.478   c-0.604,0.32-1.282,0.489-1.961,0.489c-1.562,0-2.986-0.856-3.718-2.234C70.244,39.025,70.137,37.887,70.467,36.814z"></path><path d="M58.38,29.381c0.628,0.255,1.286,0.384,1.958,0.384c2.127,0,4.019-1.274,4.819-3.247c1.079-2.658-0.206-5.698-2.865-6.777   c-0.625-0.254-1.282-0.382-1.953-0.382c-2.129,0-4.021,1.274-4.821,3.245C54.438,25.261,55.723,28.301,58.38,29.381z M56.443,22.98   c0.646-1.592,2.176-2.621,3.896-2.621c0.541,0,1.072,0.104,1.577,0.309c2.147,0.872,3.187,3.328,2.315,5.475   c-0.647,1.593-2.176,2.623-3.894,2.623c-0.542,0-1.074-0.104-1.581-0.311C56.609,27.582,55.572,25.126,56.443,22.98z"></path><path d="M77.553,51.512c-0.36-0.077-0.729-0.116-1.095-0.116c-2.434,0-4.569,1.729-5.079,4.111c-0.6,2.804,1.194,5.575,3.997,6.177   c0.361,0.077,0.73,0.116,1.097,0.116c2.436,0,4.572-1.729,5.08-4.113C82.15,54.883,80.355,52.113,77.553,51.512z M80.574,57.478   c-0.41,1.926-2.135,3.322-4.102,3.322c-0.296,0-0.594-0.031-0.887-0.095c-2.265-0.485-3.713-2.724-3.229-4.989   c0.411-1.924,2.136-3.32,4.101-3.32c0.296,0,0.594,0.031,0.886,0.095C79.607,52.976,81.058,55.213,80.574,57.478z"></path><path d="M84.971,59.742l5.954,0.905l1.249-8.213l-5.904-0.896c0.061-1.469,0.035-2.941-0.076-4.386l5.896-1.187l-1.636-8.149   l-5.857,1.177c-0.447-1.399-0.977-2.771-1.578-4.089l5.147-3.14l-4.327-7.093l-5.099,3.11c-0.876-1.145-1.84-2.256-2.874-3.313   l3.755-4.698l-6.49-5.19l-3.721,4.658c-1.287-0.814-2.64-1.555-4.032-2.208l1.823-5.41l-7.875-2.66l-1.825,5.411   c-1.412-0.303-2.866-0.524-4.333-0.659l-0.136-5.704l-8.311,0.198l0.139,5.7c-1.441,0.202-2.885,0.494-4.304,0.87l-2.077-5.314   l-7.738,3.025l2.081,5.328c-1.296,0.688-2.551,1.453-3.739,2.28l-3.781-4.291l-6.234,5.487l3.775,4.289   c-0.993,1.099-1.911,2.249-2.738,3.428l-5.013-2.741l-3.985,7.294l5.02,2.739c-0.243,0.595-0.521,1.31-0.77,2.058   c-0.212,0.626-0.41,1.285-0.628,2.094L9.071,39.6l-1.245,8.213l5.647,0.856c-0.055,1.476-0.021,2.948,0.101,4.389l-5.603,1.124   l1.641,8.146l5.605-1.125c0.455,1.398,0.991,2.768,1.598,4.08l-4.883,2.978l4.326,7.096l4.875-2.978   c0.888,1.144,1.859,2.251,2.894,3.301l-3.562,4.455l6.492,5.189l3.564-4.458c1.237,0.776,2.528,1.481,3.85,2.101l-1.822,5.407   l7.875,2.656l1.824-5.41c1.404,0.305,2.856,0.525,4.33,0.66l0.14,5.709l8.31-0.198l-0.136-5.706c1.44-0.2,2.883-0.491,4.3-0.867   l2.079,5.32l7.736-3.033l-2.083-5.326c1.217-0.642,2.415-1.365,3.573-2.157l3.979,4.521l6.239-5.492l-3.949-4.481   c0.978-1.065,1.902-2.208,2.757-3.405l5.282,2.88l3.985-7.293l-5.248-2.865c0.335-0.806,0.614-1.544,0.85-2.244   C84.592,61.051,84.778,60.438,84.971,59.742z M84.121,59.052c-0.229,0.86-0.443,1.581-0.677,2.27   c-0.268,0.795-0.595,1.643-0.998,2.59l-0.178,0.418l5.164,2.819l-3.026,5.539l-5.19-2.83l-0.256,0.368   c-0.986,1.417-2.074,2.76-3.233,3.991l-0.312,0.332l3.889,4.411l-4.737,4.17l-3.908-4.438l-0.366,0.257   c-1.36,0.953-2.781,1.812-4.224,2.549l-0.403,0.206l2.048,5.235l-5.875,2.303l-2.042-5.227l-0.435,0.121   c-1.657,0.461-3.354,0.804-5.042,1.017l-0.448,0.057l0.134,5.605l-6.311,0.151l-0.138-5.608l-0.449-0.035   c-1.734-0.138-3.442-0.398-5.076-0.775l-0.441-0.102l-1.793,5.317l-5.98-2.018l1.791-5.312l-0.412-0.187   c-1.557-0.706-3.075-1.534-4.512-2.463l-0.38-0.245l-3.502,4.38l-4.931-3.939l3.497-4.375l-0.319-0.316   c-1.23-1.218-2.372-2.521-3.394-3.871l-0.273-0.361l-4.79,2.927l-3.285-5.387l4.799-2.927l-0.195-0.407   c-0.729-1.526-1.36-3.136-1.875-4.785l-0.134-0.43l-5.506,1.104L9.15,54.965l5.505-1.104l-0.044-0.45   c-0.165-1.68-0.205-3.411-0.119-5.144l0.022-0.452l-5.549-0.841l0.945-6.235l5.555,0.84l0.114-0.435   c0.26-0.991,0.484-1.75,0.726-2.465c0.301-0.904,0.648-1.762,0.917-2.408l0.173-0.415l-4.93-2.69l3.026-5.538l4.928,2.694   l0.255-0.375c0.947-1.39,2.026-2.742,3.208-4.019l0.307-0.332l-3.71-4.214l4.733-4.166l3.716,4.216l0.367-0.263   c1.377-0.986,2.852-1.886,4.384-2.675l0.401-0.206l-2.044-5.234l5.876-2.296l2.041,5.221l0.435-0.121   c1.659-0.462,3.356-0.805,5.046-1.02l0.448-0.057l-0.136-5.599l6.31-0.15l0.134,5.603l0.449,0.036   c1.726,0.138,3.436,0.397,5.081,0.772l0.44,0.101l1.793-5.316l5.98,2.02l-1.791,5.316l0.412,0.187   c1.63,0.739,3.209,1.604,4.692,2.569l0.38,0.248l3.66-4.582l4.928,3.94l-3.687,4.614l0.316,0.316   c1.229,1.228,2.363,2.535,3.368,3.885l0.272,0.365l5.021-3.062l3.285,5.386l-5.058,3.085l0.191,0.406   c0.723,1.533,1.346,3.147,1.851,4.795l0.133,0.433l5.763-1.158l1.241,6.188l-5.792,1.166l0.04,0.447   c0.152,1.689,0.182,3.419,0.089,5.143l-0.024,0.454l5.811,0.88l-0.948,6.236l-5.851-0.89L84.121,59.052z"></path><path d="M66.889,66.548c-1.167,0-2.271,0.379-3.193,1.097c-2.262,1.76-2.67,5.033-0.909,7.296c0.992,1.275,2.489,2.008,4.108,2.008   c1.167,0,2.271-0.38,3.194-1.099c2.262-1.764,2.669-5.037,0.907-7.299C70.004,67.277,68.507,66.548,66.889,66.548z M69.474,75.061   c-0.745,0.58-1.637,0.888-2.579,0.888c-1.309,0-2.518-0.591-3.319-1.621c-1.422-1.828-1.093-4.472,0.733-5.894   c0.746-0.58,1.638-0.886,2.58-0.886c1.308,0,2.518,0.59,3.318,1.618C71.63,70.992,71.301,73.637,69.474,75.061z"></path><path d="M68.731,56.358c1.7-5.037,1.337-10.435-1.023-15.198c-2.36-4.763-6.435-8.321-11.471-10.019   c-2.066-0.697-4.208-1.05-6.368-1.05c-8.545,0-16.122,5.444-18.854,13.546c-3.504,10.398,2.103,21.713,12.5,25.224   c2.062,0.694,4.201,1.047,6.356,1.047C58.421,69.908,66,64.463,68.731,56.358z M49.872,68.908c-2.047,0-4.079-0.335-6.037-0.994   c-9.875-3.335-15.201-14.082-11.873-23.958c2.595-7.695,9.791-12.866,17.906-12.866c2.051,0,4.086,0.335,6.048,0.998   c4.784,1.613,8.653,4.992,10.895,9.516c2.242,4.524,2.588,9.65,0.973,14.434C65.189,63.736,57.991,68.908,49.872,68.908z"></path><path d="M31.557,65.253c-1.468,0-2.875,0.625-3.86,1.715c-1.923,2.129-1.755,5.426,0.373,7.35c0.956,0.865,2.193,1.342,3.483,1.342   c1.47,0,2.879-0.626,3.866-1.718c0.932-1.031,1.405-2.364,1.334-3.753c-0.071-1.387-0.679-2.661-1.709-3.589   C34.086,65.731,32.847,65.253,31.557,65.253z M34.677,73.271c-0.797,0.882-1.936,1.388-3.124,1.388   c-1.042,0-2.04-0.385-2.812-1.084c-1.72-1.554-1.854-4.217-0.301-5.938c0.796-0.88,1.932-1.385,3.118-1.385   c1.042,0,2.042,0.386,2.817,1.088c0.832,0.75,1.322,1.779,1.38,2.899C35.812,71.361,35.429,72.438,34.677,73.271z"></path><path d="M49.178,72.334l-0.195-0.003c-2.81,0-5.091,2.2-5.192,5.008c-0.051,1.391,0.442,2.717,1.388,3.734   c0.946,1.019,2.231,1.606,3.619,1.657l0.191,0.003c2.814,0,5.098-2.202,5.2-5.014c0.051-1.389-0.442-2.714-1.389-3.73   C51.854,72.972,50.567,72.385,49.178,72.334z M48.989,81.733l-0.155-0.003c-1.121-0.04-2.159-0.516-2.922-1.338   c-0.764-0.822-1.163-1.894-1.122-3.018c0.082-2.268,1.924-4.044,4.193-4.044l0.158,0.003c1.123,0.04,2.162,0.515,2.926,1.336   c0.764,0.821,1.162,1.892,1.121,3.014C53.106,79.954,51.262,81.733,48.989,81.733z"></path><path d="M27.902,53.114c-0.387-2.795-2.986-4.834-5.865-4.439c-1.376,0.191-2.596,0.908-3.435,2.017s-1.195,2.479-1.003,3.853   c0.355,2.561,2.571,4.49,5.154,4.49c0.236,0,0.475-0.016,0.716-0.049C26.308,58.59,28.296,55.955,27.902,53.114z M23.333,57.996   c-2.31,0.314-4.429-1.33-4.743-3.589c-0.155-1.11,0.133-2.216,0.811-3.111c0.678-0.897,1.663-1.476,2.775-1.63   c0.196-0.027,0.391-0.041,0.583-0.041c2.082,0,3.867,1.56,4.154,3.626C27.23,55.547,25.624,57.676,23.333,57.996z"></path></g></svg>