<svg height='100px' width='100px'  fill="#000000" xmlns="http://www.w3.org/2000/svg" xmlns:xlink="http://www.w3.org/1999/xlink" version="1.1" x="0px" y="0px" viewBox="0 0 100 100" enable-background="new 0 0 100 100" xml:space="preserve"><g><path d="M86.929,47.703l5.159-0.83l-1.14-7.09l-5.121,0.826c-0.479-1.882-1.105-3.731-1.868-5.509l4.565-2.542l-3.497-6.273   l-4.528,2.523c-1.135-1.659-2.409-3.232-3.797-4.688l3.051-3.528l-5.431-4.696l-3.054,3.53c-1.588-1.131-3.262-2.137-4.985-2.995   l1.658-4.354l-6.707-2.553l-1.658,4.352c-1.846-0.505-3.764-0.87-5.714-1.088l0.074-4.665l-7.184-0.111l-0.069,4.663   c-1.921,0.157-3.847,0.468-5.737,0.926L39.41,9.198l-6.779,2.349l1.529,4.4c-1.761,0.807-3.468,1.757-5.085,2.833l-2.936-3.613   l-5.569,4.532l2.946,3.619c-0.708,0.697-1.377,1.408-1.997,2.121c-0.602,0.698-1.195,1.446-1.806,2.277l-4.006-2.393l-3.686,6.16   l3.998,2.389c-0.828,1.75-1.523,3.576-2.073,5.439l-4.57-0.875l-1.361,7.045l4.59,0.881c-0.181,1.935-0.212,3.886-0.092,5.813   l-4.601,0.742l1.135,7.087l4.608-0.743c0.491,1.876,1.13,3.72,1.904,5.493l-4.078,2.273l3.496,6.27l4.079-2.267   c1.101,1.592,2.333,3.102,3.671,4.499l-3.057,3.535l5.428,4.7l3.062-3.536c1.592,1.129,3.265,2.133,4.985,2.991l-1.728,4.539   l6.707,2.556l1.73-4.54c1.833,0.503,3.736,0.868,5.668,1.087l-0.08,5.02l7.18,0.107l0.073-5.008   c1.839-0.146,3.707-0.441,5.567-0.879l1.716,4.941l6.783-2.353l-1.697-4.886c1.759-0.795,3.471-1.737,5.1-2.807l3.293,4.049   l5.568-4.528l-3.269-4.022c0.743-0.729,1.464-1.493,2.146-2.277c0.542-0.625,1.081-1.299,1.677-2.099l4.491,2.684l3.684-6.167   l-4.44-2.648c0.826-1.714,1.53-3.535,2.098-5.427l5.128,0.979l1.354-7.042l-5.091-0.98C86.995,51.586,87.037,49.634,86.929,47.703z    M90.725,55.291l-0.977,5.079l-5.041-0.963l-0.126,0.439c-0.617,2.145-1.412,4.201-2.364,6.111l-0.207,0.415l4.375,2.608   l-2.658,4.45l-4.413-2.638l-0.269,0.368c-0.689,0.94-1.292,1.703-1.896,2.399c-0.763,0.878-1.575,1.729-2.415,2.531l-0.333,0.318   l3.219,3.962l-4.018,3.267l-3.236-3.98l-0.379,0.255c-1.822,1.229-3.755,2.292-5.745,3.161l-0.424,0.185l1.671,4.812l-4.893,1.698   l-1.688-4.856l-0.442,0.109c-2.104,0.52-4.224,0.854-6.297,0.992l-0.46,0.031l-0.071,4.925l-5.18-0.076l0.079-4.935l-0.457-0.046   c-2.186-0.222-4.336-0.635-6.392-1.227l-0.441-0.127l-1.701,4.461l-4.839-1.843l1.697-4.46l-0.413-0.199   c-1.947-0.941-3.837-2.075-5.617-3.37l-0.372-0.271l-3.007,3.474l-3.916-3.392l3.004-3.475l-0.323-0.329   c-1.527-1.554-2.918-3.259-4.134-5.067l-0.256-0.381l-4.007,2.227l-2.522-4.523l4.004-2.232l-0.189-0.419   c-0.897-1.986-1.619-4.069-2.145-6.188l-0.111-0.446l-4.525,0.729l-0.819-5.112l4.518-0.729l-0.034-0.458   c-0.162-2.168-0.126-4.371,0.104-6.549l0.048-0.457l-4.506-0.865l0.981-5.083l4.489,0.86l0.125-0.442   c0.593-2.107,1.378-4.168,2.335-6.127l0.202-0.413l-3.925-2.346l2.658-4.444l3.934,2.35l0.269-0.372   c0.69-0.957,1.352-1.801,2.021-2.578c0.694-0.799,1.456-1.598,2.264-2.376l0.332-0.319l-2.894-3.554l4.017-3.269l2.883,3.549   l0.38-0.26c1.806-1.234,3.733-2.308,5.728-3.191l0.421-0.186l-1.501-4.322l4.89-1.695l1.509,4.325l0.444-0.113   c2.125-0.542,4.299-0.893,6.463-1.042l0.458-0.032l0.068-4.578l5.183,0.08l-0.072,4.581l0.457,0.046   c2.204,0.22,4.37,0.633,6.437,1.227l0.442,0.127l1.628-4.274l4.838,1.842l-1.628,4.274l0.414,0.2   c1.951,0.94,3.841,2.075,5.615,3.372l0.372,0.272l3-3.469l3.919,3.388l-2.996,3.465l0.321,0.329   c1.575,1.612,3.008,3.381,4.258,5.257l0.256,0.384l4.459-2.485l2.522,4.526l-4.486,2.498l0.186,0.417   c0.883,1.991,1.591,4.08,2.104,6.207l0.108,0.45l5.046-0.814l0.821,5.115l-5.07,0.815l0.031,0.456   c0.149,2.173,0.102,4.377-0.14,6.551l-0.051,0.459L90.725,55.291z"></path><path d="M50,45.083c-2.711,0-4.917,2.206-4.917,4.917s2.206,4.917,4.917,4.917s4.917-2.206,4.917-4.917S52.711,45.083,50,45.083z    M50,53.917c-2.16,0-3.917-1.757-3.917-3.917c0-2.16,1.757-3.917,3.917-3.917c2.16,0,3.917,1.757,3.917,3.917   C53.917,52.16,52.16,53.917,50,53.917z"></path></g></svg>