<svg xmlns="http://www.w3.org/2000/svg" xmlns:xlink="http://www.w3.org/1999/xlink" width="100" height="100" viewBox="0 0 100 100"><g transform="translate(50 50) scale(0.69 0.69) rotate(-270) translate(-50 -50)" style="fill:#000000"><svg fill="#000000" xmlns="http://www.w3.org/2000/svg" viewBox="0 0 68 64" x="0px" y="0px"><path fill="#000000" fill-rule="evenodd" d="M56.2352941,959.058824 L88.2352941,899.058824 C88.9882353,897.647059 91.0117647,897.647059 91.7647059,899.058824 L123.764706,959.058824 C124.475219,960.391036 123.509841,962 122,962 L58,962 C56.490159,962 55.5247807,960.391036 56.2352941,959.058824 Z M92,958 L118.666667,958 L90,904.25 L61.3333333,958 L88,958 L88,936 C88,934.895431 88.8954305,934 90,934 C91.1045695,934 92,934.895431 92,936 L92,958 Z" transform="translate(-56 -898)"></path></svg></g></svg>