<svg height='100px' width='100px'  fill="#000000" xmlns="http://www.w3.org/2000/svg" xmlns:xlink="http://www.w3.org/1999/xlink" version="1.1" x="0px" y="0px" viewBox="0 0 100 100" enable-background="new 0 0 100 100" xml:space="preserve"><g><path d="M49.524,39.391c-6.232,0-11.302,5.071-11.302,11.303s5.07,11.303,11.302,11.303c6.231,0,11.301-5.07,11.301-11.303   S55.756,39.391,49.524,39.391z M49.524,60.997c-5.68,0-10.302-4.622-10.302-10.303c0-5.681,4.622-10.303,10.302-10.303   c5.68,0,10.301,4.622,10.301,10.303C59.825,56.375,55.204,60.997,49.524,60.997z"></path><path d="M91.094,43.676c-0.7-3.951-3.087-6.663-3.188-6.776l-0.186-0.208l-6.352,1.123c-1.089-2.676-2.517-5.213-4.252-7.551   l4.137-4.926l-0.069-0.253c-0.037-0.136-0.949-3.368-4.287-6.181c-3.073-2.577-6.646-3.121-6.796-3.142l-0.276-0.04l-3.973,4.737   c-2.589-1.403-5.373-2.467-8.285-3.168v-6.107l-0.215-0.149C57.236,10.953,54.465,9.06,50.1,9.06c-4.012,0-7.1,1.879-7.229,1.959   l-0.237,0.146v5.86c-2.966,0.606-5.845,1.61-8.572,2.99l-3.734-4.453l-0.26,0.023c-0.141,0.013-3.482,0.344-6.827,3.149   c-3.072,2.581-4.231,6.003-4.279,6.148l-0.088,0.265l3.633,4.329c-1.908,2.426-3.477,5.09-4.672,7.932l-5.557-0.98l-0.184,0.185   c-0.1,0.1-2.449,2.501-3.206,6.8c-0.696,3.951,0.616,7.319,0.672,7.46l0.104,0.259l5.543,0.977   c0.128,3.106,0.663,6.148,1.593,9.055l-4.94,2.85l-0.022,0.261c-0.012,0.141-0.267,3.49,1.918,7.271   c2.005,3.474,5.172,5.209,5.306,5.281l0.246,0.132l5.051-2.913c2.059,2.216,4.396,4.151,6.956,5.761l-2.042,5.608l0.15,0.214   c0.082,0.115,2.041,2.845,6.143,4.336c1.533,0.558,3.209,0.841,4.983,0.841c1.462,0,2.437-0.198,2.478-0.207l0.273-0.057   l2.09-5.744c3.31,0.413,5.574,0.381,8.832-0.081l2.146,5.899l0.253,0.066c0.041,0.011,1.002,0.26,2.522,0.26   c1.685,0,3.356-0.297,4.971-0.883c3.772-1.373,6.028-4.193,6.123-4.312l0.173-0.219l-2.194-6.023   c2.41-1.569,4.626-3.446,6.594-5.586l5.657,3.266l0.236-0.111c0.128-0.061,3.154-1.519,5.343-5.293   c2.005-3.477,1.919-7.089,1.914-7.241l-0.009-0.278l-5.644-3.256c0.846-2.688,1.353-5.53,1.509-8.458l6.479-1.141l0.109-0.238   C90.463,51.038,91.841,47.976,91.094,43.676z M89.589,50.513l-6.737,1.187l-0.018,0.401c-0.131,3.119-0.671,6.14-1.603,8.978   l-0.127,0.387l5.852,3.376c-0.023,0.88-0.223,3.74-1.778,6.437c-1.693,2.92-3.966,4.367-4.68,4.771l-5.89-3.401l-0.271,0.302   c-2.065,2.298-4.42,4.293-6.997,5.929L67,79.092l2.273,6.242c-0.582,0.657-2.566,2.715-5.503,3.784   c-1.504,0.546-3.061,0.822-4.629,0.822c-0.951,0-1.665-0.106-2.02-0.174l-2.24-6.161l-0.404,0.062   c-1.863,0.28-3.438,0.411-4.953,0.411c-1.333,0-2.732-0.104-4.402-0.325L44.724,83.7l-2.17,5.963   c-0.367,0.055-1.084,0.141-2.005,0.141c-1.657,0-3.219-0.263-4.642-0.78c-3.173-1.154-4.991-3.141-5.511-3.773l2.137-5.869   l-0.349-0.214c-2.73-1.671-5.206-3.721-7.358-6.093l-0.271-0.299l-5.253,3.031c-0.749-0.46-3.118-2.059-4.679-4.763   c-1.691-2.925-1.806-5.615-1.797-6.434l5.18-2.987l-0.129-0.388c-1.02-3.057-1.586-6.274-1.684-9.563l-0.012-0.407l-5.781-1.019   c-0.278-0.836-1.066-3.594-0.526-6.66c0.586-3.326,2.228-5.459,2.762-6.081l5.821,1.027l0.152-0.374   c1.228-3.018,2.889-5.836,4.936-8.377l0.258-0.32l-3.793-4.52c0.324-0.819,1.493-3.439,3.877-5.441   c2.587-2.17,5.215-2.75,6.023-2.884l3.902,4.654l0.356-0.186c2.869-1.494,5.918-2.556,9.062-3.158l0.406-0.078v-6.114   c0.774-0.419,3.353-1.676,6.466-1.676c3.376,0,5.762,1.245,6.466,1.662v6.364l0.389,0.089c3.098,0.708,6.05,1.838,8.772,3.357   l0.36,0.202l4.137-4.932c0.862,0.176,3.645,0.87,6.028,2.869c2.582,2.176,3.613,4.665,3.887,5.438l-4.302,5.123l0.241,0.318   c1.872,2.462,3.39,5.157,4.51,8.011l0.15,0.381l6.594-1.165c0.547,0.689,2.232,3.009,2.776,6.073   C90.687,47.175,89.877,49.745,89.589,50.513z"></path></g></svg>